<svg width="24" height="24" viewBox="0 0 24 24" fill="none" xmlns="http://www.w3.org/2000/svg">
<path d="M9.29279 11.293L13.2928 7.29296C13.385 7.19745 13.4954 7.12127 13.6174 7.06886C13.7394 7.01645 13.8706 6.98886 14.0034 6.98771C14.1362 6.98655 14.2678 7.01186 14.3907 7.06214C14.5136 7.11242 14.6253 7.18667 14.7192 7.28056C14.8131 7.37446 14.8873 7.48611 14.9376 7.60901C14.9879 7.7319 15.0132 7.86358 15.012 7.99636C15.0109 8.12914 14.9833 8.26036 14.9309 8.38236C14.8785 8.50437 14.8023 8.61471 14.7068 8.70696L11.4138 12L14.7068 15.293C14.8023 15.3852 14.8785 15.4956 14.9309 15.6176C14.9833 15.7396 15.0109 15.8708 15.012 16.0036C15.0132 16.1363 14.9879 16.268 14.9376 16.3909C14.8873 16.5138 14.8131 16.6255 14.7192 16.7194C14.6253 16.8132 14.5136 16.8875 14.3907 16.9378C14.2678 16.9881 14.1362 17.0134 14.0034 17.0122C13.8706 17.0111 13.7394 16.9835 13.6174 16.9311C13.4954 16.8787 13.385 16.8025 13.2928 16.707L9.29279 12.707C9.10532 12.5194 9 12.2651 9 12C9 11.7348 9.10532 11.4805 9.29279 11.293Z" fill="white"/>
</svg>
